# xmcd
#
# Track frame offsets:
# 150
# 21491
# 36502
# 50452
# 63519
# 87137
# 105431
# 123362
# 133368
# 148144
# 160008
# 184401
# 189129
# 206720
#
# Disc length: 2888 seconds
#
#
# Revision: 2
# Processed by: cddbd v1.5PL3 Copyright (c) Steve Scherf et al.
# Submitted via: FreeRIP 2.60 
#
DISCID=ce0b460e
DTITLE=Jefferson Gonçalves - Gréia
DYEAR=2003
DGENRE=Blues
TTITLE0=Rollin' Along
TTITLE1=Don't Look Back
TTITLE2=How Long Blues
TTITLE3=Café Expresso
TTITLE4=Hard Times
TTITLE5=All Along the watchtower
TTITLE6=Walkin' with the danger
TTITLE7=Forró dos Amigos
TTITLE8=Win the lotto
TTITLE9=Gréia
TTITLE10=Ill Fated Woman Blues
TTITLE11=Pifado
TTITLE12=Wild Girl
TTITLE13=Rabeconha Blues
EXTD=
EXTT0=c/ Peter Madcat Ruth
EXTT1=c/ Richard Warner
EXTT2=
EXTT3=c/ Carlos Malta
EXTT4=
EXTT5=
EXTT6=c/ Norton Buffalo
EXTT7=c/ Tavares da Gaita
EXTT8=c/ Peter Madcat Ruth
EXTT9=
EXTT10=c/ Johnny Rover, Jamie Wood, Big Joe Manfra, Derico Alves e Sergio Ferraz
EXTT11=c/ Carlos Malta
EXTT12=c/ Richard Warner
EXTT13=c/ Zê da Flauta, Pedro Qeuntal e Big Joe Manfra
PLAYORDER=
